<?xml version="1.0" encoding="UTF-8"?>
<!-- Generator: visioncortex VTracer 0.6.3 -->
<svg version="1.1" xmlns="http://www.w3.org/2000/svg" width="1280" height="1280">
<path d="M0 0 C0.86 -0 1.72 -0.01 2.6 -0.01 C3.54 -0.01 4.48 -0 5.44 -0 C6.43 -0 7.42 -0.01 8.44 -0.01 C11.73 -0.01 15.01 -0.01 18.29 -0.01 C20.56 -0.01 22.84 -0.01 25.11 -0.01 C29.88 -0.01 34.66 -0.01 39.43 -0 C45.55 0 51.68 -0 57.8 -0.01 C62.5 -0.01 67.2 -0.01 71.9 -0.01 C74.16 -0.01 76.41 -0.01 78.67 -0.01 C81.82 -0.01 84.98 -0.01 88.13 -0 C89.54 -0.01 89.54 -0.01 90.97 -0.01 C91.83 -0.01 92.69 -0 93.57 0 C94.32 0 95.07 0 95.83 0 C97.79 0.13 97.79 0.13 100.79 1.13 C102.16 1.26 103.54 1.35 104.91 1.41 C105.7 1.45 106.49 1.48 107.3 1.52 C108.12 1.56 108.94 1.59 109.79 1.63 C111.41 1.7 113.04 1.77 114.66 1.85 C115.38 1.88 116.1 1.91 116.84 1.94 C118.79 2.13 118.79 2.13 121.79 3.13 C123.16 3.33 124.53 3.49 125.91 3.63 C126.7 3.71 127.49 3.79 128.3 3.88 C129.12 3.96 129.94 4.04 130.79 4.13 C132.41 4.29 134.04 4.46 135.66 4.63 C136.38 4.7 137.1 4.77 137.84 4.85 C139.79 5.13 139.79 5.13 142.79 6.13 C144.53 6.28 146.29 6.4 148.04 6.5 C158.57 7.32 168.77 9.81 178.97 12.45 C181.65 13.1 184.32 13.6 187.04 14.06 C193.73 15.22 200.28 16.94 206.86 18.63 C209.68 19.36 212.52 20.05 215.35 20.75 C226.88 23.65 226.88 23.65 229.62 25.1 C232.18 26.31 234.65 26.88 237.41 27.5 C242.22 28.66 246.61 30.17 251.15 32.09 C254.18 33.28 257.23 34.21 260.35 35.13 C264.94 36.5 269.22 38.1 273.56 40.13 C276.03 41.24 278.54 42.16 281.1 43.06 C290.35 46.38 299.18 50.27 307.94 54.73 C310.44 55.96 312.93 57.01 315.54 58 C328.1 62.87 339.95 69.74 351.79 76.13 C352.73 76.63 353.67 77.13 354.64 77.65 C361.3 81.21 367.76 85.07 374.21 88.98 C376.54 90.39 378.88 91.75 381.26 93.09 C400.43 103.99 418.57 117.15 435.92 130.71 C437.83 132.16 439.79 133.52 441.77 134.88 C442.77 135.62 443.76 136.36 444.79 137.13 C444.79 137.79 444.79 138.45 444.79 139.13 C445.32 139.37 445.86 139.62 446.41 139.88 C449.37 141.43 452.08 143.16 454.79 145.13 C454.79 145.79 454.79 146.45 454.79 147.13 C455.38 147.4 455.97 147.67 456.58 147.95 C458.73 149.1 460.34 150.31 462.17 151.91 C462.78 152.44 463.39 152.97 464.02 153.52 C464.96 154.35 464.96 154.35 465.91 155.19 C467.16 156.29 468.42 157.38 469.67 158.47 C470.22 158.96 470.77 159.44 471.34 159.94 C472.8 161.22 472.8 161.22 474.79 162.13 C474.79 162.79 474.79 163.45 474.79 164.13 C475.78 164.46 476.77 164.79 477.79 165.13 C477.79 165.79 477.79 166.45 477.79 167.13 C478.36 167.37 478.93 167.61 479.52 167.87 C482.19 169.35 483.93 171.11 486.04 173.31 C488.91 176.25 491.79 179.08 494.91 181.75 C502.67 188.43 502.67 188.43 505.79 192.13 C505.79 192.79 505.79 193.45 505.79 194.13 C506.45 194.13 507.11 194.13 507.79 194.13 C509.41 195.77 509.41 195.77 511.22 197.94 C513.76 200.95 513.76 200.95 516.51 203.76 C517.79 205.13 517.79 205.13 517.79 207.13 C518.45 207.13 519.11 207.13 519.79 207.13 C519.79 207.79 519.79 208.45 519.79 209.13 C520.78 209.46 521.77 209.79 522.79 210.13 C522.79 210.79 522.79 211.45 522.79 212.13 C523.45 212.13 524.11 212.13 524.79 212.13 C526.26 213.76 527.67 215.46 529.04 217.19 C531.75 220.59 534.47 223.94 537.35 227.19 C539.79 230.13 539.79 230.13 539.79 232.13 C540.45 232.13 541.11 232.13 541.79 232.13 C543.29 233.81 543.29 233.81 544.91 236 C545.45 236.72 545.99 237.44 546.54 238.18 C547.79 240.13 547.79 240.13 547.79 242.13 C548.45 242.13 549.11 242.13 549.79 242.13 C551.49 244.12 551.49 244.12 553.6 247 C553.99 247.53 554.38 248.06 554.78 248.6 C556.12 250.44 557.45 252.28 558.79 254.13 C559.82 255.54 560.85 256.96 561.88 258.37 C597.17 306.82 597.17 306.82 609.41 332.37 C610.82 335.2 612.4 337.86 614.04 340.56 C618.81 348.61 622.66 357.12 626.6 365.59 C627.68 367.89 628.76 370.18 629.84 372.46 C632.69 378.47 635.43 384.49 637.83 390.69 C638.91 393.44 640.07 396.16 641.22 398.88 C643.56 404.46 645.61 410.13 647.61 415.84 C648.58 418.54 649.61 421.17 650.72 423.81 C653.34 430.21 655.28 436.84 657.32 443.44 C659.16 449.38 661.12 455.28 663.22 461.13 C664.91 466.16 666.05 471.32 667.24 476.49 C668.31 481.18 669.5 485.81 670.79 490.44 C673.05 498.79 674.69 507.25 676.32 515.74 C676.75 517.95 677.2 520.15 677.67 522.35 C679.02 528.78 680.06 535.05 680.54 541.6 C680.78 544.08 681.2 546.44 681.72 548.88 C683.99 559.61 685 570.37 685.45 581.31 C685.53 585.35 685.53 585.35 686.79 589.13 C686.88 590.48 686.91 591.83 686.91 593.18 C686.92 594.45 686.92 594.45 686.92 595.75 C686.92 596.68 686.92 597.62 686.92 598.58 C686.92 599.56 686.92 600.54 686.92 601.55 C686.93 604.8 686.92 608.06 686.92 611.31 C686.92 613.56 686.92 615.82 686.92 618.07 C686.92 622.8 686.92 627.53 686.92 632.26 C686.91 638.34 686.92 644.41 686.92 650.48 C686.92 655.14 686.92 659.79 686.92 664.45 C686.92 666.69 686.92 668.93 686.92 671.17 C686.93 674.29 686.92 677.42 686.92 680.55 C686.92 681.94 686.92 681.94 686.92 683.37 C686.92 684.22 686.92 685.07 686.91 685.95 C686.91 686.68 686.91 687.42 686.91 688.19 C686.79 690.13 686.79 690.13 685.79 693.13 C685.6 695.88 685.46 698.62 685.35 701.38 C684.82 712.33 683.51 723.03 681.21 733.77 C680.77 736.23 680.57 738.63 680.41 741.13 C679.96 746.92 678.69 752.42 677.37 758.06 C675.96 764.17 674.82 770.29 673.83 776.47 C673.16 780.53 672.11 784.24 670.79 788.13 C669.99 791.67 669.28 795.23 668.57 798.79 C667.88 801.75 666.94 804.33 665.79 807.13 C665.64 808.2 665.5 809.27 665.35 810.38 C664.81 813.96 663.92 816.97 662.73 820.37 C661.55 823.81 660.49 827.28 659.41 830.75 C657.7 836.25 655.96 841.73 654.16 847.19 C653.78 848.36 653.39 849.52 653 850.72 C652.18 853.02 651.29 855.28 650.33 857.51 C648.28 862.31 646.63 867.22 644.95 872.16 C644.7 872.89 644.45 873.61 644.19 874.36 C643.97 875.01 643.75 875.67 643.52 876.34 C642.79 878.13 642.79 878.13 640.79 881.13 C640.29 882.51 639.84 883.91 639.41 885.31 C638.24 888.96 636.78 892.26 635.01 895.66 C633.39 898.93 631.97 902.28 630.54 905.63 C627.23 913.29 623.57 920.74 619.78 928.17 C618.14 931.4 616.53 934.64 614.91 937.88 C613.2 941.29 611.5 944.71 609.79 948.13 C609.13 948.13 608.47 948.13 607.79 948.13 C607.61 949.23 607.61 949.23 607.44 950.37 C606.78 953.16 605.94 954.9 604.41 957.31 C603.87 958.19 603.33 959.06 602.77 959.96 C602.11 961 601.46 962.05 600.79 963.13 C599.99 964.44 599.19 965.76 598.4 967.08 C585.22 988.91 570.94 1009.75 555.57 1030.09 C553.57 1032.73 551.62 1035.37 549.79 1038.13 C549.13 1038.13 548.47 1038.13 547.79 1038.13 C547.54 1038.66 547.29 1039.2 547.04 1039.75 C545.48 1042.71 543.75 1045.42 541.79 1048.13 C541.13 1048.13 540.47 1048.13 539.79 1048.13 C539.38 1048.99 539.38 1048.99 538.97 1049.88 C537.76 1052.18 536.48 1054.15 534.79 1056.13 C534.13 1056.13 533.47 1056.13 532.79 1056.13 C532.38 1056.99 532.38 1056.99 531.97 1057.86 C530.75 1060.21 529.36 1062.25 527.79 1064.38 C527.27 1065.08 526.76 1065.79 526.22 1066.52 C525.75 1067.05 525.28 1067.58 524.79 1068.13 C524.13 1068.13 523.47 1068.13 522.79 1068.13 C522.46 1069.12 522.13 1070.11 521.79 1071.13 C521.13 1071.13 520.47 1071.13 519.79 1071.13 C519.79 1071.79 519.79 1072.45 519.79 1073.13 C519.13 1073.13 518.47 1073.13 517.79 1073.13 C517.53 1073.71 517.27 1074.3 517.01 1074.9 C515.68 1077.32 514.22 1078.86 512.22 1080.75 C509.65 1083.17 509.65 1083.17 507.79 1086.13 C507.13 1086.13 506.47 1086.13 505.79 1086.13 C505.53 1086.71 505.28 1087.29 505.01 1087.89 C501.59 1094.14 495.03 1098.87 489.68 1103.45 C487.83 1105.09 486.12 1106.79 484.41 1108.56 C481.79 1111.13 481.79 1111.13 479.79 1111.13 C479.79 1111.79 479.79 1112.45 479.79 1113.13 C479.13 1113.13 478.47 1113.13 477.79 1113.13 C477.46 1114.12 477.13 1115.11 476.79 1116.13 C476.13 1116.13 475.47 1116.13 474.79 1116.13 C474.79 1116.79 474.79 1117.45 474.79 1118.13 C473.15 1119.6 471.45 1121.01 469.72 1122.38 C466.33 1125.09 462.97 1127.8 459.72 1130.69 C456.79 1133.13 456.79 1133.13 454.79 1133.13 C454.79 1133.79 454.79 1134.45 454.79 1135.13 C453.11 1136.63 453.11 1136.63 450.91 1138.25 C449.83 1139.06 449.83 1139.06 448.73 1139.88 C446.79 1141.13 446.79 1141.13 444.79 1141.13 C444.79 1141.79 444.79 1142.45 444.79 1143.13 C442.53 1144.98 440.27 1146.72 437.91 1148.44 C437.19 1148.97 436.47 1149.5 435.73 1150.05 C434.2 1151.18 432.66 1152.3 431.12 1153.42 C428.88 1155.06 426.65 1156.7 424.42 1158.35 C407.61 1170.71 389.97 1181.78 372.17 1192.67 C369.99 1194 367.81 1195.35 365.62 1196.7 C358.69 1200.95 351.65 1204.81 344.33 1208.37 C340.52 1210.26 336.78 1212.28 333.04 1214.31 C328.21 1216.93 323.38 1219.21 318.24 1221.13 C315.33 1222.31 312.58 1223.7 309.79 1225.13 C305.37 1227.37 300.95 1229.35 296.33 1231.13 C293.54 1232.22 290.79 1233.39 288.04 1234.56 C282.46 1236.9 276.8 1238.94 271.1 1240.94 C268.25 1241.96 265.46 1243.04 262.66 1244.19 C258.05 1246.07 253.35 1247.64 248.61 1249.19 C246.21 1249.99 243.84 1250.84 241.47 1251.75 C236.53 1253.6 231.57 1254.97 226.41 1256.06 C222.55 1256.9 218.9 1258.05 215.17 1259.34 C208.64 1261.5 201.95 1263.15 195.23 1264.6 C192.26 1265.24 189.31 1265.94 186.35 1266.63 C180.85 1267.9 175.33 1269.06 169.79 1270.13 C168.54 1270.38 167.29 1270.62 166 1270.88 C159.11 1272.23 152.31 1273.37 145.29 1273.88 C141.92 1274.21 138.66 1274.94 135.35 1275.65 C131.63 1276.34 127.9 1276.62 124.13 1276.88 C121.64 1277.06 121.64 1277.06 118.79 1278.13 C117.34 1278.26 115.89 1278.35 114.44 1278.41 C113.19 1278.46 113.19 1278.46 111.92 1278.52 C110.16 1278.59 108.41 1278.66 106.66 1278.73 C105.41 1278.79 105.41 1278.79 104.13 1278.85 C103.37 1278.88 102.61 1278.91 101.82 1278.94 C99.59 1279.07 99.59 1279.07 96.79 1280.13 C95.4 1280.22 94 1280.25 92.61 1280.25 C91.33 1280.26 91.33 1280.26 90.03 1280.26 C89.1 1280.26 88.17 1280.26 87.21 1280.26 C86.22 1280.26 85.24 1280.26 84.23 1280.26 C80.98 1280.27 77.72 1280.26 74.47 1280.26 C72.22 1280.26 69.96 1280.26 67.7 1280.26 C62.98 1280.26 58.25 1280.26 53.52 1280.26 C47.45 1280.25 41.37 1280.25 35.3 1280.26 C30.64 1280.26 25.99 1280.26 21.33 1280.26 C19.09 1280.26 16.85 1280.26 14.61 1280.26 C11.49 1280.27 8.36 1280.26 5.24 1280.26 C4.31 1280.26 3.37 1280.26 2.41 1280.26 C1.14 1280.26 1.14 1280.26 -0.16 1280.25 C-0.9 1280.25 -1.64 1280.25 -2.4 1280.25 C-4.21 1280.13 -4.21 1280.13 -6.21 1279.13 C-7.62 1278.99 -9.04 1278.9 -10.46 1278.85 C-11.3 1278.81 -12.13 1278.77 -13 1278.73 C-13.87 1278.7 -14.75 1278.66 -15.65 1278.63 C-17.38 1278.56 -19.11 1278.49 -20.83 1278.41 C-21.99 1278.36 -21.99 1278.36 -23.16 1278.32 C-25.21 1278.13 -25.21 1278.13 -28.21 1277.13 C-30.94 1276.81 -33.67 1276.52 -36.4 1276.25 C-43.6 1275.5 -50.64 1274.39 -57.75 1272.97 C-62.19 1272.11 -66.65 1271.4 -71.12 1270.69 C-80.28 1269.23 -89.2 1267.59 -98.09 1264.96 C-101.45 1264.06 -104.77 1263.59 -108.21 1263.13 C-110.55 1262.48 -112.89 1261.81 -115.21 1261.13 C-117.17 1260.64 -119.13 1260.16 -121.09 1259.69 C-125.35 1258.63 -129.48 1257.44 -133.63 1256 C-137.01 1254.86 -140.42 1253.81 -143.84 1252.75 C-149.33 1251.04 -154.81 1249.3 -160.28 1247.5 C-161.44 1247.12 -162.61 1246.73 -163.81 1246.34 C-168.5 1244.67 -172.99 1242.68 -177.53 1240.63 C-181.3 1239.09 -185.06 1237.95 -188.98 1236.87 C-191.21 1236.13 -191.21 1236.13 -194.21 1234.13 C-196.31 1233.37 -198.43 1232.74 -200.57 1232.1 C-202.8 1231.28 -204.79 1230.36 -206.9 1229.28 C-210.67 1227.36 -214.51 1225.7 -218.42 1224.08 C-229.02 1219.69 -239.13 1214.67 -249.21 1209.2 C-253.16 1207.08 -257.18 1205.09 -261.21 1203.13 C-261.21 1202.47 -261.21 1201.81 -261.21 1201.13 C-261.95 1201.01 -262.69 1200.89 -263.45 1200.77 C-266.23 1200.12 -268 1199.27 -270.39 1197.76 C-271.16 1197.29 -271.92 1196.81 -272.71 1196.32 C-273.49 1195.83 -274.28 1195.33 -275.09 1194.81 C-276.65 1193.84 -278.21 1192.86 -279.77 1191.89 C-280.52 1191.41 -281.28 1190.94 -282.06 1190.45 C-283.95 1189.29 -285.86 1188.17 -287.8 1187.08 C-291.61 1184.9 -295.29 1182.58 -298.96 1180.19 C-300.05 1179.48 -300.05 1179.48 -301.17 1178.76 C-313.49 1170.71 -325.69 1162.52 -337.26 1153.42 C-341.17 1150.39 -345.2 1147.55 -349.26 1144.72 C-350.23 1143.93 -350.23 1143.93 -351.21 1143.13 C-351.21 1142.47 -351.21 1141.81 -351.21 1141.13 C-351.75 1140.88 -352.29 1140.63 -352.84 1140.38 C-355.8 1138.82 -358.51 1137.09 -361.21 1135.13 C-361.21 1134.47 -361.21 1133.81 -361.21 1133.13 C-361.79 1132.86 -362.37 1132.59 -362.96 1132.31 C-365.27 1131.1 -367.23 1129.82 -369.21 1128.13 C-369.21 1127.47 -369.21 1126.81 -369.21 1126.13 C-369.75 1125.89 -370.3 1125.65 -370.85 1125.41 C-373.85 1123.78 -376.32 1121.78 -378.96 1119.63 C-379.95 1118.83 -380.93 1118.04 -381.95 1117.22 C-383.07 1116.18 -383.07 1116.18 -384.21 1115.13 C-384.21 1114.47 -384.21 1113.81 -384.21 1113.13 C-384.87 1113.13 -385.53 1113.13 -386.21 1113.13 C-386.21 1112.47 -386.21 1111.81 -386.21 1111.13 C-386.77 1110.9 -387.32 1110.68 -387.89 1110.44 C-390.9 1108.74 -392.94 1106.55 -395.34 1104.06 C-398.45 1100.66 -398.45 1100.66 -402.21 1098.13 C-402.21 1097.47 -402.21 1096.81 -402.21 1096.13 C-402.8 1095.87 -403.39 1095.62 -403.99 1095.35 C-406.43 1094.01 -407.9 1092.58 -409.78 1090.54 C-410.43 1089.84 -411.08 1089.13 -411.75 1088.41 C-412.42 1087.68 -413.09 1086.94 -413.78 1086.19 C-415.11 1084.74 -416.44 1083.3 -417.78 1081.85 C-418.37 1081.21 -418.95 1080.57 -419.56 1079.9 C-420.64 1078.74 -421.77 1077.61 -422.93 1076.52 C-424.21 1075.13 -424.21 1075.13 -424.21 1073.13 C-424.87 1073.13 -425.53 1073.13 -426.21 1073.13 C-426.21 1072.47 -426.21 1071.81 -426.21 1071.13 C-427.2 1070.8 -428.19 1070.47 -429.21 1070.13 C-429.21 1069.47 -429.21 1068.81 -429.21 1068.13 C-429.87 1068.13 -430.53 1068.13 -431.21 1068.13 C-433.16 1066.01 -433.16 1066.01 -435.34 1063.25 C-436.06 1062.35 -436.79 1061.44 -437.53 1060.51 C-439.21 1058.13 -439.21 1058.13 -439.21 1056.13 C-439.87 1056.13 -440.53 1056.13 -441.21 1056.13 C-446.21 1050.65 -446.21 1050.65 -446.21 1048.13 C-446.87 1048.13 -447.53 1048.13 -448.21 1048.13 C-449.72 1046.45 -449.72 1046.45 -451.34 1044.25 C-452.15 1043.17 -452.15 1043.17 -452.97 1042.07 C-454.21 1040.13 -454.21 1040.13 -454.21 1038.13 C-454.87 1038.13 -455.53 1038.13 -456.21 1038.13 C-457.92 1036.13 -457.92 1036.13 -460.03 1033.25 C-460.41 1032.73 -460.8 1032.2 -461.2 1031.66 C-462.54 1029.82 -463.88 1027.97 -465.21 1026.13 C-466.27 1024.68 -467.32 1023.23 -468.38 1021.78 C-489.64 992.55 -508.83 962.38 -525.21 930.13 C-525.6 929.37 -525.98 928.62 -526.38 927.84 C-530.53 919.7 -534.5 911.49 -538.21 903.13 C-541.44 895.92 -541.44 895.92 -544.9 888.81 C-546.21 886.13 -546.21 886.13 -547.11 883.41 C-548.31 879.83 -549.72 876.36 -551.15 872.88 C-553.23 867.77 -555.01 862.69 -556.51 857.37 C-557.22 855.09 -558.13 853.03 -559.15 850.88 C-561.46 845.91 -562.83 840.76 -564.28 835.49 C-565.62 830.65 -567.2 825.9 -568.92 821.18 C-570.94 815.48 -572.32 809.66 -573.66 803.77 C-574.75 799.02 -575.96 794.32 -577.28 789.63 C-578.95 783.47 -580.17 777.32 -581.17 771.02 C-581.89 766.61 -582.95 762.42 -584.21 758.13 C-585.63 751.7 -586.41 745.3 -586.93 738.74 C-587.19 736.31 -587.63 734.06 -588.21 731.69 C-589.34 727.07 -589.67 722.47 -589.97 717.73 C-590.12 715.02 -590.12 715.02 -591.21 712.13 C-591.35 710.67 -591.44 709.21 -591.49 707.75 C-591.53 706.91 -591.57 706.07 -591.61 705.21 C-591.68 703.44 -591.75 701.68 -591.82 699.91 C-591.86 699.07 -591.89 698.24 -591.93 697.37 C-591.98 696.22 -591.98 696.22 -592.02 695.05 C-592.11 693.04 -592.11 693.04 -593.21 691.13 C-593.31 689.77 -593.34 688.4 -593.34 687.03 C-593.34 686.18 -593.35 685.32 -593.35 684.44 C-593.35 683.5 -593.34 682.55 -593.34 681.58 C-593.34 680.59 -593.35 679.6 -593.35 678.58 C-593.35 675.3 -593.35 672.01 -593.35 668.72 C-593.35 666.45 -593.35 664.17 -593.35 661.89 C-593.35 657.12 -593.35 652.34 -593.34 647.56 C-593.34 641.43 -593.34 635.3 -593.35 629.17 C-593.35 624.46 -593.35 619.76 -593.35 615.06 C-593.35 612.8 -593.35 610.53 -593.35 608.27 C-593.35 605.12 -593.35 601.96 -593.34 598.8 C-593.34 597.86 -593.35 596.92 -593.35 595.95 C-593.35 595.09 -593.34 594.23 -593.34 593.35 C-593.34 592.6 -593.34 591.85 -593.34 591.08 C-593.21 589.13 -593.21 589.13 -592.21 586.13 C-592.05 583.5 -591.93 580.88 -591.84 578.25 C-591.51 571 -590.75 563.87 -589.71 556.69 C-589.58 555.78 -589.45 554.88 -589.32 553.95 C-588.8 550.54 -588.31 547.41 -587.21 544.13 C-587.06 542.57 -586.94 541 -586.84 539.44 C-586.42 534.41 -585.64 529.52 -584.71 524.56 C-584.58 523.86 -584.45 523.16 -584.32 522.43 C-583.34 517.39 -583.34 517.39 -582.21 515.13 C-582.11 513.89 -582.01 512.65 -581.9 511.38 C-581.35 505.97 -579.8 500.97 -578.24 495.78 C-577.29 492.38 -576.53 489.02 -575.84 485.56 C-571.52 464.66 -565.2 442.37 -556.76 422.74 C-554.71 417.94 -553.05 413.03 -551.38 408.09 C-551.12 407.37 -550.87 406.64 -550.62 405.89 C-550.39 405.24 -550.17 404.59 -549.94 403.92 C-549.21 402.13 -549.21 402.13 -547.21 399.13 C-546.72 397.74 -546.26 396.35 -545.84 394.94 C-544.63 391.18 -543.12 387.81 -541.29 384.31 C-540.08 381.86 -539.05 379.36 -538.03 376.81 C-535.75 371.28 -533.27 365.85 -530.71 360.44 C-530.35 359.66 -529.98 358.87 -529.6 358.07 C-527.36 353.36 -524.96 348.79 -522.4 344.25 C-521.32 342.33 -520.28 340.38 -519.26 338.42 C-515.46 331.16 -511.45 324.13 -507.08 317.19 C-505.33 314.32 -503.72 311.41 -502.15 308.44 C-499.65 303.76 -496.77 299.49 -493.63 295.22 C-492.05 293.09 -492.05 293.09 -491.21 290.13 C-490.55 290.13 -489.89 290.13 -489.21 290.13 C-488.8 289.02 -488.8 289.02 -488.38 287.89 C-487.29 285.32 -486.1 283.24 -484.53 280.94 C-484 280.16 -483.47 279.39 -482.92 278.59 C-482.36 277.78 -481.79 276.97 -481.21 276.13 C-480.63 275.28 -480.05 274.44 -479.45 273.57 C-475.31 267.6 -471 261.79 -466.51 256.08 C-463.47 252.17 -460.63 248.14 -457.81 244.08 C-457.02 243.11 -457.02 243.11 -456.21 242.13 C-455.55 242.13 -454.89 242.13 -454.21 242.13 C-453.84 241.32 -453.84 241.32 -453.46 240.5 C-451.91 237.54 -450.18 234.83 -448.21 232.13 C-447.55 232.13 -446.89 232.13 -446.21 232.13 C-445.94 231.54 -445.67 230.95 -445.39 230.34 C-444.24 228.18 -443.03 226.57 -441.43 224.74 C-440.9 224.13 -440.37 223.52 -439.82 222.9 C-439.27 222.27 -438.72 221.65 -438.15 221 C-437.05 219.75 -435.96 218.5 -434.87 217.24 C-434.14 216.42 -434.14 216.42 -433.4 215.58 C-432.12 214.12 -432.12 214.12 -431.21 212.13 C-430.55 212.13 -429.89 212.13 -429.21 212.13 C-428.88 211.14 -428.55 210.15 -428.21 209.13 C-427.55 209.13 -426.89 209.13 -426.21 209.13 C-426.21 208.47 -426.21 207.81 -426.21 207.13 C-425.55 207.13 -424.89 207.13 -424.21 207.13 C-423.98 206.56 -423.75 206 -423.51 205.42 C-421.89 202.56 -419.89 200.65 -417.53 198.38 C-413.67 194.62 -410.09 190.78 -406.69 186.62 C-405.21 185.13 -405.21 185.13 -402.21 184.13 C-402.21 183.47 -402.21 182.81 -402.21 182.13 C-400.67 180.61 -400.67 180.61 -398.59 178.88 C-395.87 176.58 -393.3 174.26 -390.84 171.69 C-388.21 169.13 -388.21 169.13 -386.21 169.13 C-386.21 168.47 -386.21 167.81 -386.21 167.13 C-385.55 167.13 -384.89 167.13 -384.21 167.13 C-383.88 166.14 -383.55 165.15 -383.21 164.13 C-382.55 164.13 -381.89 164.13 -381.21 164.13 C-381.21 163.47 -381.21 162.81 -381.21 162.13 C-379.1 160.18 -379.1 160.18 -376.34 158 C-375.43 157.28 -374.53 156.55 -373.6 155.81 C-371.21 154.13 -371.21 154.13 -369.21 154.13 C-369.21 153.47 -369.21 152.81 -369.21 152.13 C-363.74 147.13 -363.74 147.13 -361.21 147.13 C-361.21 146.47 -361.21 145.81 -361.21 145.13 C-359.53 143.62 -359.53 143.62 -357.34 142 C-356.62 141.46 -355.9 140.92 -355.16 140.37 C-353.21 139.13 -353.21 139.13 -351.21 139.13 C-351.21 138.47 -351.21 137.81 -351.21 137.13 C-349.22 135.42 -349.22 135.42 -346.34 133.31 C-345.81 132.93 -345.28 132.54 -344.74 132.14 C-342.9 130.79 -341.06 129.46 -339.21 128.13 C-337.8 127.09 -336.38 126.06 -334.97 125.03 C-326.33 118.74 -317.61 112.59 -308.78 106.57 C-304.99 103.98 -301.25 101.34 -297.52 98.66 C-295.12 97.06 -292.65 95.63 -290.13 94.21 C-286.7 92.27 -283.3 90.26 -279.9 88.25 C-279.15 87.81 -278.39 87.37 -277.62 86.91 C-273.77 84.65 -269.95 82.35 -266.15 80 C-260.01 76.3 -253.55 73.22 -247.12 70.06 C-244.48 68.77 -241.85 67.45 -239.21 66.13 C-238.26 65.65 -237.32 65.18 -236.34 64.69 C-234 63.52 -231.67 62.34 -229.34 61.15 C-222.22 57.54 -215.11 54.14 -207.7 51.15 C-205.71 50.33 -203.76 49.4 -201.84 48.44 C-199.21 47.13 -199.21 47.13 -196.5 46.23 C-192.92 45.03 -189.45 43.63 -185.96 42.19 C-180.85 40.11 -175.77 38.32 -170.46 36.83 C-168.18 36.12 -166.12 35.21 -163.96 34.19 C-159 31.88 -153.84 30.51 -148.58 29.06 C-143.74 27.72 -138.98 26.14 -134.26 24.42 C-128.56 22.4 -122.74 21.02 -116.85 19.68 C-112.16 18.6 -107.53 17.41 -102.9 16.13 C-94.55 13.86 -86.09 12.23 -77.6 10.59 C-75.39 10.16 -73.19 9.71 -70.99 9.24 C-64.54 7.89 -58.26 6.85 -51.69 6.37 C-49.3 6.14 -47.1 5.7 -44.78 5.13 C-40.15 4 -35.55 3.67 -30.81 3.37 C-28.1 3.22 -28.1 3.22 -25.21 2.13 C-23.84 1.99 -22.46 1.9 -21.09 1.85 C-20.3 1.81 -19.51 1.77 -18.7 1.73 C-17.04 1.66 -15.38 1.59 -13.73 1.52 C-12.94 1.48 -12.15 1.45 -11.34 1.41 C-10.26 1.36 -10.26 1.36 -9.16 1.32 C-5.95 1 -3.28 0 0 0 Z " fill="#EC5180" transform="translate(593.212890625,-0.126983642578125)"/>
<path d="M0 0 C43.28 -0.05 86.56 -0.08 129.84 -0.1 C134.94 -0.1 140.05 -0.11 145.15 -0.11 C146.17 -0.11 147.19 -0.11 148.23 -0.11 C164.71 -0.12 181.18 -0.14 197.66 -0.15 C214.55 -0.17 231.45 -0.18 248.34 -0.19 C258.77 -0.19 269.2 -0.2 279.64 -0.22 C286.78 -0.23 293.93 -0.23 301.07 -0.23 C305.2 -0.23 309.33 -0.23 313.45 -0.24 C317.23 -0.25 321 -0.25 324.78 -0.24 C326.8 -0.24 328.82 -0.25 330.84 -0.26 C332.63 -0.25 332.63 -0.25 334.44 -0.25 C335.48 -0.25 336.51 -0.25 337.57 -0.25 C340 0 340 0 342 2 C342.41 3.85 342.41 3.85 342.64 6.13 C342.74 6.99 342.84 7.84 342.94 8.73 C343.04 9.66 343.14 10.6 343.25 11.56 C346.95 41.36 356.14 70.4 369.97 97.01 C370.99 98.99 372 100.97 373.01 102.96 C377.05 110.83 381.61 117.97 387 125 C387.93 126.27 388.86 127.54 389.79 128.81 C395.36 136.43 401.12 143.61 407.62 150.45 C410 153 410 153 412.09 155.63 C413.82 157.78 415.52 159.48 417.62 161.25 C420.65 163.83 423.59 166.48 426.5 169.19 C447.66 188.21 472.81 203.11 499 214 C499.94 214.43 500.88 214.85 501.86 215.29 C515.96 221.58 531.18 225.6 546.25 228.81 C547.15 229.01 548.04 229.2 548.96 229.4 C564.73 232.59 580.64 233.38 596.69 233.31 C597.56 233.31 598.42 233.31 599.32 233.31 C613.4 233.26 627.12 232.53 641 230 C641.9 229.84 642.81 229.69 643.73 229.53 C666.86 225.44 690.2 217.95 711 207 C712.32 206.32 713.64 205.65 714.96 204.97 C736.86 193.66 757.92 178.85 775 161 C777.37 158.6 779.76 156.23 782.22 153.92 C794.42 142.31 804.01 128.17 813 114 C813.38 113.41 813.76 112.81 814.15 112.2 C831.89 84.34 842.97 52.57 848.47 20.11 C849.15 16.13 849.85 12.14 850.56 8.16 C850.7 7.38 850.84 6.59 850.98 5.78 C851.32 3.85 851.66 1.93 852 0 C895.3 -0.02 938.59 -0.04 981.89 -0.05 C987 -0.05 992.1 -0.05 997.21 -0.05 C998.23 -0.06 999.24 -0.06 1000.29 -0.06 C1016.77 -0.06 1033.25 -0.07 1049.74 -0.08 C1066.64 -0.09 1083.54 -0.09 1100.43 -0.09 C1110.87 -0.1 1121.31 -0.1 1131.74 -0.11 C1138.89 -0.11 1146.04 -0.11 1153.18 -0.11 C1157.31 -0.11 1161.44 -0.11 1165.57 -0.12 C1169.35 -0.12 1173.12 -0.12 1176.9 -0.12 C1178.27 -0.12 1179.64 -0.12 1181.01 -0.12 C1182.86 -0.13 1184.71 -0.13 1186.57 -0.12 C1187.6 -0.12 1188.63 -0.12 1189.7 -0.12 C1192 0 1192 0 1193 1 C1197.95 67.17 1175.23 141.12 1151 202 C1150.71 202.75 1150.41 203.5 1150.11 204.27 C1146.53 213.36 1142.56 222.13 1138.11 230.82 C1136.18 234.6 1134.38 238.43 1132.59 242.28 C1129.29 249.37 1125.89 256.28 1121.8 262.97 C1120.2 265.67 1118.68 268.4 1117.19 271.16 C1110.17 284.1 1102.78 296.91 1094.22 308.89 C1092.61 311.14 1091.04 313.41 1089.5 315.71 C1082.45 326.18 1074.84 336.12 1067 346 C1066.25 346.96 1065.49 347.92 1064.72 348.9 C1060.28 354.52 1055.68 359.99 1051.03 365.43 C1049.15 367.64 1047.28 369.86 1045.44 372.09 C1037.65 381.44 1029.22 390.06 1020.58 398.63 C1018.23 400.95 1015.9 403.29 1013.56 405.63 C1012.04 407.14 1010.53 408.64 1009.02 410.15 C1008.33 410.84 1007.64 411.52 1006.93 412.23 C1002.98 416.14 998.93 419.89 994.72 423.52 C992.5 425.43 990.35 427.4 988.19 429.38 C955.86 458.48 917.55 486.37 878.34 505.35 C874.95 507.02 871.63 508.79 868.31 510.57 C859.17 515.46 849.91 519.84 840.4 523.94 C837.52 525.21 834.67 526.56 831.81 527.9 C825.11 531.01 818.29 533.72 811.38 536.31 C810.44 536.66 810.44 536.66 809.49 537.02 C730.74 566.58 647.57 580.11 498 568 C496.22 567.72 496.22 567.72 494.41 567.43 C440.77 558.74 389.13 540.94 340 518 C338.9 517.49 338.9 517.49 337.78 516.97 C318.25 507.79 299.03 496.99 280.94 485.24 C278.76 483.84 276.55 482.48 274.35 481.11 C264.95 475.29 255.87 469.22 247.05 462.54 C244.75 460.81 242.44 459.11 240.12 457.4 C230.59 450.36 221.4 443.11 212.5 435.29 C210.28 433.38 207.98 431.57 205.69 429.75 C192.26 418.77 180.14 406.24 167.88 394 C167.24 393.37 166.61 392.74 165.95 392.09 C159.41 385.57 152.95 379.07 147 372 C145.93 370.77 144.86 369.55 143.79 368.32 C134.09 357.2 124.73 345.91 116 334 C115.52 333.34 115.03 332.68 114.53 332 C103.71 317.27 93.37 302.28 84.09 286.52 C82.72 284.19 81.32 281.89 79.88 279.6 C76.12 273.62 72.69 267.62 69.61 261.26 C68.1 258.21 66.51 255.22 64.88 252.22 C59.03 241.4 53.96 230.26 49 219 C48.67 218.26 48.33 217.51 47.99 216.75 C18.98 151.94 3.24 80.47 -0.75 9.75 C-0.79 8.98 -0.84 8.2 -0.89 7.4 C-1.13 2.25 -1.13 2.25 0 0 Z " fill="#FAFDFF" transform="translate(43,661)"/>
<path d="M0 0 C0.86 -0 1.72 -0.01 2.6 -0.01 C3.54 -0.01 4.48 -0 5.44 -0 C6.43 -0 7.42 -0.01 8.44 -0.01 C11.73 -0.01 15.01 -0.01 18.29 -0.01 C20.56 -0.01 22.84 -0.01 25.11 -0.01 C29.88 -0.01 34.66 -0.01 39.43 -0 C45.55 0 51.68 -0 57.8 -0.01 C62.5 -0.01 67.2 -0.01 71.9 -0.01 C74.16 -0.01 76.41 -0.01 78.67 -0.01 C81.82 -0.01 84.98 -0.01 88.13 -0 C89.54 -0.01 89.54 -0.01 90.97 -0.01 C91.83 -0.01 92.69 -0 93.57 0 C94.32 0 95.07 0 95.83 0 C97.79 0.13 97.79 0.13 100.79 1.13 C102.16 1.26 103.54 1.35 104.91 1.41 C105.7 1.45 106.49 1.48 107.3 1.52 C108.12 1.56 108.94 1.59 109.79 1.63 C111.41 1.7 113.04 1.77 114.66 1.85 C115.38 1.88 116.1 1.91 116.84 1.94 C118.79 2.13 118.79 2.13 121.79 3.13 C123.16 3.33 124.53 3.49 125.91 3.63 C126.7 3.71 127.49 3.79 128.3 3.88 C129.12 3.96 129.94 4.04 130.79 4.13 C132.41 4.29 134.04 4.46 135.66 4.63 C136.38 4.7 137.1 4.77 137.84 4.85 C139.79 5.13 139.79 5.13 142.79 6.13 C144.53 6.28 146.29 6.4 148.04 6.5 C158.57 7.32 168.77 9.81 178.97 12.45 C181.65 13.1 184.32 13.6 187.04 14.06 C193.73 15.22 200.28 16.94 206.86 18.63 C209.68 19.36 212.52 20.05 215.35 20.75 C226.88 23.65 226.88 23.65 229.62 25.1 C232.18 26.31 234.65 26.88 237.41 27.5 C242.22 28.66 246.61 30.17 251.15 32.09 C254.18 33.28 257.23 34.21 260.35 35.13 C264.94 36.5 269.22 38.1 273.56 40.13 C276.03 41.24 278.54 42.16 281.1 43.06 C290.35 46.38 299.18 50.27 307.94 54.73 C310.44 55.96 312.93 57.01 315.54 58 C328.1 62.87 339.95 69.74 351.79 76.13 C352.73 76.63 353.67 77.13 354.64 77.65 C361.3 81.21 367.76 85.07 374.21 88.98 C376.54 90.39 378.88 91.75 381.26 93.09 C400.43 103.99 418.57 117.15 435.92 130.71 C437.83 132.16 439.79 133.52 441.77 134.88 C442.77 135.62 443.76 136.36 444.79 137.13 C444.79 137.79 444.79 138.45 444.79 139.13 C445.32 139.37 445.86 139.62 446.41 139.88 C449.37 141.43 452.08 143.16 454.79 145.13 C454.79 145.79 454.79 146.45 454.79 147.13 C455.38 147.4 455.97 147.67 456.58 147.95 C458.73 149.1 460.34 150.31 462.17 151.91 C462.78 152.44 463.39 152.97 464.02 153.52 C464.96 154.35 464.96 154.35 465.91 155.19 C467.16 156.29 468.42 157.38 469.67 158.47 C470.22 158.96 470.77 159.44 471.34 159.94 C472.8 161.22 472.8 161.22 474.79 162.13 C474.79 162.79 474.79 163.45 474.79 164.13 C475.78 164.46 476.77 164.79 477.79 165.13 C477.79 165.79 477.79 166.45 477.79 167.13 C478.36 167.37 478.93 167.61 479.52 167.87 C482.19 169.35 483.93 171.11 486.04 173.31 C488.91 176.25 491.79 179.08 494.91 181.75 C502.67 188.43 502.67 188.43 505.79 192.13 C505.79 192.79 505.79 193.45 505.79 194.13 C506.45 194.13 507.11 194.13 507.79 194.13 C509.41 195.77 509.41 195.77 511.22 197.94 C513.76 200.95 513.76 200.95 516.51 203.76 C517.79 205.13 517.79 205.13 517.79 207.13 C518.45 207.13 519.11 207.13 519.79 207.13 C519.79 207.79 519.79 208.45 519.79 209.13 C520.78 209.46 521.77 209.79 522.79 210.13 C522.79 210.79 522.79 211.45 522.79 212.13 C523.45 212.13 524.11 212.13 524.79 212.13 C526.26 213.76 527.67 215.46 529.04 217.19 C531.75 220.59 534.47 223.94 537.35 227.19 C539.79 230.13 539.79 230.13 539.79 232.13 C540.45 232.13 541.11 232.13 541.79 232.13 C543.29 233.81 543.29 233.81 544.91 236 C545.45 236.72 545.99 237.44 546.54 238.18 C547.79 240.13 547.79 240.13 547.79 242.13 C548.45 242.13 549.11 242.13 549.79 242.13 C551.49 244.12 551.49 244.12 553.6 247 C553.99 247.53 554.38 248.06 554.78 248.6 C556.12 250.44 557.45 252.28 558.79 254.13 C559.82 255.54 560.85 256.96 561.88 258.37 C597.17 306.82 597.17 306.82 609.41 332.37 C610.82 335.2 612.4 337.86 614.04 340.56 C618.81 348.61 622.66 357.12 626.6 365.59 C627.68 367.89 628.76 370.18 629.84 372.46 C632.69 378.47 635.43 384.49 637.83 390.69 C638.91 393.44 640.07 396.16 641.22 398.88 C643.56 404.46 645.61 410.13 647.61 415.84 C648.58 418.54 649.61 421.17 650.72 423.81 C653.34 430.21 655.28 436.84 657.32 443.44 C659.16 449.38 661.12 455.28 663.22 461.13 C664.91 466.16 666.05 471.32 667.24 476.49 C668.31 481.18 669.5 485.81 670.79 490.44 C673.05 498.79 674.69 507.25 676.32 515.74 C676.75 517.95 677.2 520.15 677.67 522.35 C679.02 528.78 680.06 535.05 680.54 541.6 C680.78 544.08 681.2 546.44 681.72 548.88 C683.99 559.61 685 570.37 685.45 581.31 C685.53 585.35 685.53 585.35 686.79 589.13 C686.88 590.48 686.91 591.83 686.91 593.18 C686.92 594.45 686.92 594.45 686.92 595.75 C686.92 596.68 686.92 597.62 686.92 598.58 C686.92 599.56 686.92 600.54 686.92 601.55 C686.93 604.8 686.92 608.06 686.92 611.31 C686.92 613.56 686.92 615.82 686.92 618.07 C686.92 622.8 686.92 627.53 686.92 632.26 C686.91 638.34 686.92 644.41 686.92 650.48 C686.92 655.14 686.92 659.79 686.92 664.45 C686.92 666.69 686.92 668.93 686.92 671.17 C686.93 674.29 686.92 677.42 686.92 680.55 C686.92 681.94 686.92 681.94 686.92 683.37 C686.92 684.22 686.92 685.07 686.91 685.95 C686.91 686.68 686.91 687.42 686.91 688.19 C686.79 690.13 686.79 690.13 685.79 693.13 C685.6 695.88 685.46 698.62 685.35 701.38 C684.82 712.33 683.51 723.03 681.21 733.77 C680.77 736.23 680.57 738.63 680.41 741.13 C679.96 746.92 678.69 752.42 677.37 758.06 C675.96 764.17 674.82 770.29 673.83 776.47 C673.16 780.53 672.11 784.24 670.79 788.13 C669.99 791.67 669.28 795.23 668.57 798.79 C667.88 801.75 666.94 804.33 665.79 807.13 C665.64 808.2 665.5 809.27 665.35 810.38 C664.81 813.96 663.92 816.97 662.73 820.37 C661.55 823.81 660.49 827.28 659.41 830.75 C657.7 836.25 655.96 841.73 654.16 847.19 C653.78 848.36 653.39 849.52 653 850.72 C652.18 853.02 651.29 855.28 650.33 857.51 C648.28 862.31 646.63 867.22 644.95 872.16 C644.7 872.89 644.45 873.61 644.19 874.36 C643.97 875.01 643.75 875.67 643.52 876.34 C642.79 878.13 642.79 878.13 640.79 881.13 C640.29 882.51 639.84 883.91 639.41 885.31 C638.24 888.96 636.78 892.26 635.01 895.66 C633.39 898.93 631.97 902.28 630.54 905.63 C627.23 913.29 623.57 920.74 619.78 928.17 C618.14 931.4 616.53 934.64 614.91 937.88 C613.2 941.29 611.5 944.71 609.79 948.13 C609.13 948.13 608.47 948.13 607.79 948.13 C607.61 949.23 607.61 949.23 607.44 950.37 C606.78 953.16 605.94 954.9 604.41 957.31 C603.87 958.19 603.33 959.06 602.77 959.96 C602.11 961 601.46 962.05 600.79 963.13 C599.99 964.44 599.19 965.76 598.4 967.08 C585.22 988.91 570.94 1009.75 555.57 1030.09 C553.57 1032.73 551.62 1035.37 549.79 1038.13 C549.13 1038.13 548.47 1038.13 547.79 1038.13 C547.54 1038.66 547.29 1039.2 547.04 1039.75 C545.48 1042.71 543.75 1045.42 541.79 1048.13 C541.13 1048.13 540.47 1048.13 539.79 1048.13 C539.38 1048.99 539.38 1048.99 538.97 1049.88 C537.76 1052.18 536.48 1054.15 534.79 1056.13 C534.13 1056.13 533.47 1056.13 532.79 1056.13 C532.38 1056.99 532.38 1056.99 531.97 1057.86 C530.75 1060.21 529.36 1062.25 527.79 1064.38 C527.27 1065.08 526.76 1065.79 526.22 1066.52 C525.75 1067.05 525.28 1067.58 524.79 1068.13 C524.13 1068.13 523.47 1068.13 522.79 1068.13 C522.46 1069.12 522.13 1070.11 521.79 1071.13 C521.13 1071.13 520.47 1071.13 519.79 1071.13 C519.79 1071.79 519.79 1072.45 519.79 1073.13 C519.13 1073.13 518.47 1073.13 517.79 1073.13 C517.53 1073.71 517.27 1074.3 517.01 1074.9 C515.68 1077.32 514.22 1078.86 512.22 1080.75 C509.65 1083.17 509.65 1083.17 507.79 1086.13 C507.13 1086.13 506.47 1086.13 505.79 1086.13 C505.53 1086.71 505.28 1087.29 505.01 1087.89 C501.59 1094.14 495.03 1098.87 489.68 1103.45 C487.83 1105.09 486.12 1106.79 484.41 1108.56 C481.79 1111.13 481.79 1111.13 479.79 1111.13 C479.79 1111.79 479.79 1112.45 479.79 1113.13 C479.13 1113.13 478.47 1113.13 477.79 1113.13 C477.46 1114.12 477.13 1115.11 476.79 1116.13 C476.13 1116.13 475.47 1116.13 474.79 1116.13 C474.79 1116.79 474.79 1117.45 474.79 1118.13 C473.15 1119.6 471.45 1121.01 469.72 1122.38 C466.33 1125.09 462.97 1127.8 459.72 1130.69 C456.79 1133.13 456.79 1133.13 454.79 1133.13 C454.79 1133.79 454.79 1134.45 454.79 1135.13 C453.11 1136.63 453.11 1136.63 450.91 1138.25 C449.83 1139.06 449.83 1139.06 448.73 1139.88 C446.79 1141.13 446.79 1141.13 444.79 1141.13 C444.79 1141.79 444.79 1142.45 444.79 1143.13 C442.53 1144.98 440.27 1146.72 437.91 1148.44 C437.19 1148.97 436.47 1149.5 435.73 1150.05 C434.2 1151.18 432.66 1152.3 431.12 1153.42 C428.88 1155.06 426.65 1156.7 424.42 1158.35 C407.61 1170.71 389.97 1181.78 372.17 1192.67 C369.99 1194 367.81 1195.35 365.62 1196.7 C358.69 1200.95 351.65 1204.81 344.33 1208.37 C340.52 1210.26 336.78 1212.28 333.04 1214.31 C328.21 1216.93 323.38 1219.21 318.24 1221.13 C315.33 1222.31 312.58 1223.7 309.79 1225.13 C305.37 1227.37 300.95 1229.35 296.33 1231.13 C293.54 1232.22 290.79 1233.39 288.04 1234.56 C282.46 1236.9 276.8 1238.94 271.1 1240.94 C268.25 1241.96 265.46 1243.04 262.66 1244.19 C258.05 1246.07 253.35 1247.64 248.61 1249.19 C246.21 1249.99 243.84 1250.84 241.47 1251.75 C236.53 1253.6 231.57 1254.97 226.41 1256.06 C222.55 1256.9 218.9 1258.05 215.17 1259.34 C208.64 1261.5 201.95 1263.15 195.23 1264.6 C192.26 1265.24 189.31 1265.94 186.35 1266.63 C180.85 1267.9 175.33 1269.06 169.79 1270.13 C168.54 1270.38 167.29 1270.62 166 1270.88 C159.11 1272.23 152.31 1273.37 145.29 1273.88 C141.92 1274.21 138.66 1274.94 135.35 1275.65 C131.63 1276.34 127.9 1276.62 124.13 1276.88 C121.64 1277.06 121.64 1277.06 118.79 1278.13 C117.34 1278.26 115.89 1278.35 114.44 1278.41 C113.19 1278.46 113.19 1278.46 111.92 1278.52 C110.16 1278.59 108.41 1278.66 106.66 1278.73 C105.41 1278.79 105.41 1278.79 104.13 1278.85 C103.37 1278.88 102.61 1278.91 101.82 1278.94 C99.59 1279.07 99.59 1279.07 96.79 1280.13 C95.4 1280.22 94 1280.25 92.61 1280.25 C91.33 1280.26 91.33 1280.26 90.03 1280.26 C89.1 1280.26 88.17 1280.26 87.21 1280.26 C86.22 1280.26 85.24 1280.26 84.23 1280.26 C80.98 1280.27 77.72 1280.26 74.47 1280.26 C72.22 1280.26 69.96 1280.26 67.7 1280.26 C62.98 1280.26 58.25 1280.26 53.52 1280.26 C47.45 1280.25 41.37 1280.25 35.3 1280.26 C30.64 1280.26 25.99 1280.26 21.33 1280.26 C19.09 1280.26 16.85 1280.26 14.61 1280.26 C11.49 1280.27 8.36 1280.26 5.24 1280.26 C4.31 1280.26 3.37 1280.26 2.41 1280.26 C1.14 1280.26 1.14 1280.26 -0.16 1280.25 C-0.9 1280.25 -1.64 1280.25 -2.4 1280.25 C-4.21 1280.13 -4.21 1280.13 -6.21 1279.13 C-7.62 1278.99 -9.04 1278.9 -10.46 1278.85 C-11.3 1278.81 -12.13 1278.77 -13 1278.73 C-13.87 1278.7 -14.75 1278.66 -15.65 1278.63 C-17.38 1278.56 -19.11 1278.49 -20.83 1278.41 C-21.99 1278.36 -21.99 1278.36 -23.16 1278.32 C-25.21 1278.13 -25.21 1278.13 -28.21 1277.13 C-30.94 1276.81 -33.67 1276.52 -36.4 1276.25 C-43.6 1275.5 -50.64 1274.39 -57.75 1272.97 C-62.19 1272.11 -66.65 1271.4 -71.12 1270.69 C-80.28 1269.23 -89.2 1267.59 -98.09 1264.96 C-101.45 1264.06 -104.77 1263.59 -108.21 1263.13 C-110.55 1262.48 -112.89 1261.81 -115.21 1261.13 C-117.17 1260.64 -119.13 1260.16 -121.09 1259.69 C-125.35 1258.63 -129.48 1257.44 -133.63 1256 C-137.01 1254.86 -140.42 1253.81 -143.84 1252.75 C-149.33 1251.04 -154.81 1249.3 -160.28 1247.5 C-161.44 1247.12 -162.61 1246.73 -163.81 1246.34 C-168.5 1244.67 -172.99 1242.68 -177.53 1240.63 C-181.3 1239.09 -185.06 1237.95 -188.98 1236.87 C-191.21 1236.13 -191.21 1236.13 -194.21 1234.13 C-196.31 1233.37 -198.43 1232.74 -200.57 1232.1 C-202.8 1231.28 -204.79 1230.36 -206.9 1229.28 C-210.67 1227.36 -214.51 1225.7 -218.42 1224.08 C-229.02 1219.69 -239.13 1214.67 -249.21 1209.2 C-253.16 1207.08 -257.18 1205.09 -261.21 1203.13 C-261.21 1202.47 -261.21 1201.81 -261.21 1201.13 C-261.95 1201.01 -262.69 1200.89 -263.45 1200.77 C-266.23 1200.12 -268 1199.27 -270.39 1197.76 C-271.16 1197.29 -271.92 1196.81 -272.71 1196.32 C-273.49 1195.83 -274.28 1195.33 -275.09 1194.81 C-276.65 1193.84 -278.21 1192.86 -279.77 1191.89 C-280.52 1191.41 -281.28 1190.94 -282.06 1190.45 C-283.95 1189.29 -285.86 1188.17 -287.8 1187.08 C-291.61 1184.9 -295.29 1182.58 -298.96 1180.19 C-300.05 1179.48 -300.05 1179.48 -301.17 1178.76 C-313.49 1170.71 -325.69 1162.52 -337.26 1153.42 C-341.17 1150.39 -345.2 1147.55 -349.26 1144.72 C-350.23 1143.93 -350.23 1143.93 -351.21 1143.13 C-351.21 1142.47 -351.21 1141.81 -351.21 1141.13 C-351.75 1140.88 -352.29 1140.63 -352.84 1140.38 C-355.8 1138.82 -358.51 1137.09 -361.21 1135.13 C-361.21 1134.47 -361.21 1133.81 -361.21 1133.13 C-361.79 1132.86 -362.37 1132.59 -362.96 1132.31 C-365.27 1131.1 -367.23 1129.82 -369.21 1128.13 C-369.21 1127.47 -369.21 1126.81 -369.21 1126.13 C-369.75 1125.89 -370.3 1125.65 -370.85 1125.41 C-373.85 1123.78 -376.32 1121.78 -378.96 1119.63 C-379.95 1118.83 -380.93 1118.04 -381.95 1117.22 C-383.07 1116.18 -383.07 1116.18 -384.21 1115.13 C-384.21 1114.47 -384.21 1113.81 -384.21 1113.13 C-384.87 1113.13 -385.53 1113.13 -386.21 1113.13 C-386.21 1112.47 -386.21 1111.81 -386.21 1111.13 C-386.77 1110.9 -387.32 1110.68 -387.89 1110.44 C-390.9 1108.74 -392.94 1106.55 -395.34 1104.06 C-398.45 1100.66 -398.45 1100.66 -402.21 1098.13 C-402.21 1097.47 -402.21 1096.81 -402.21 1096.13 C-402.8 1095.87 -403.39 1095.62 -403.99 1095.35 C-406.43 1094.01 -407.9 1092.58 -409.78 1090.54 C-410.43 1089.84 -411.08 1089.13 -411.75 1088.41 C-412.42 1087.68 -413.09 1086.94 -413.78 1086.19 C-415.11 1084.74 -416.44 1083.3 -417.78 1081.85 C-418.37 1081.21 -418.95 1080.57 -419.56 1079.9 C-420.64 1078.74 -421.77 1077.61 -422.93 1076.52 C-424.21 1075.13 -424.21 1075.13 -424.21 1073.13 C-424.87 1073.13 -425.53 1073.13 -426.21 1073.13 C-426.21 1072.47 -426.21 1071.81 -426.21 1071.13 C-427.2 1070.8 -428.19 1070.47 -429.21 1070.13 C-429.21 1069.47 -429.21 1068.81 -429.21 1068.13 C-429.87 1068.13 -430.53 1068.13 -431.21 1068.13 C-433.16 1066.01 -433.16 1066.01 -435.34 1063.25 C-436.06 1062.35 -436.79 1061.44 -437.53 1060.51 C-439.21 1058.13 -439.21 1058.13 -439.21 1056.13 C-439.87 1056.13 -440.53 1056.13 -441.21 1056.13 C-446.21 1050.65 -446.21 1050.65 -446.21 1048.13 C-446.87 1048.13 -447.53 1048.13 -448.21 1048.13 C-449.72 1046.45 -449.72 1046.45 -451.34 1044.25 C-452.15 1043.17 -452.15 1043.17 -452.97 1042.07 C-454.21 1040.13 -454.21 1040.13 -454.21 1038.13 C-454.87 1038.13 -455.53 1038.13 -456.21 1038.13 C-457.92 1036.13 -457.92 1036.13 -460.03 1033.25 C-460.41 1032.73 -460.8 1032.2 -461.2 1031.66 C-462.54 1029.82 -463.88 1027.97 -465.21 1026.13 C-466.27 1024.68 -467.32 1023.23 -468.38 1021.78 C-489.64 992.55 -508.83 962.38 -525.21 930.13 C-525.6 929.37 -525.98 928.62 -526.38 927.84 C-530.53 919.7 -534.5 911.49 -538.21 903.13 C-541.44 895.92 -541.44 895.92 -544.9 888.81 C-546.21 886.13 -546.21 886.13 -547.11 883.41 C-548.31 879.83 -549.72 876.36 -551.15 872.88 C-553.23 867.77 -555.01 862.69 -556.51 857.37 C-557.22 855.09 -558.13 853.03 -559.15 850.88 C-561.46 845.91 -562.83 840.76 -564.28 835.49 C-565.62 830.65 -567.2 825.9 -568.92 821.18 C-570.94 815.48 -572.32 809.66 -573.66 803.77 C-574.75 799.02 -575.96 794.32 -577.28 789.63 C-578.95 783.47 -580.17 777.32 -581.17 771.02 C-581.89 766.61 -582.95 762.42 -584.21 758.13 C-585.63 751.7 -586.41 745.3 -586.93 738.74 C-587.19 736.31 -587.63 734.06 -588.21 731.69 C-589.34 727.07 -589.67 722.47 -589.97 717.73 C-590.12 715.02 -590.12 715.02 -591.21 712.13 C-591.35 710.67 -591.44 709.21 -591.49 707.75 C-591.53 706.91 -591.57 706.07 -591.61 705.21 C-591.68 703.44 -591.75 701.68 -591.82 699.91 C-591.86 699.07 -591.89 698.24 -591.93 697.37 C-591.98 696.22 -591.98 696.22 -592.02 695.05 C-592.11 693.04 -592.11 693.04 -593.21 691.13 C-593.31 689.77 -593.34 688.4 -593.34 687.03 C-593.34 686.18 -593.35 685.32 -593.35 684.44 C-593.35 683.5 -593.34 682.55 -593.34 681.58 C-593.34 680.59 -593.35 679.6 -593.35 678.58 C-593.35 675.3 -593.35 672.01 -593.35 668.72 C-593.35 666.45 -593.35 664.17 -593.35 661.89 C-593.35 657.12 -593.35 652.34 -593.34 647.56 C-593.34 641.43 -593.34 635.3 -593.35 629.17 C-593.35 624.46 -593.35 619.76 -593.35 615.06 C-593.35 612.8 -593.35 610.53 -593.35 608.27 C-593.35 605.12 -593.35 601.96 -593.34 598.8 C-593.34 597.86 -593.35 596.92 -593.35 595.95 C-593.35 595.09 -593.34 594.23 -593.34 593.35 C-593.34 592.6 -593.34 591.85 -593.34 591.08 C-593.21 589.13 -593.21 589.13 -592.21 586.13 C-592.05 583.5 -591.93 580.88 -591.84 578.25 C-591.51 571 -590.75 563.87 -589.71 556.69 C-589.58 555.78 -589.45 554.88 -589.32 553.95 C-588.8 550.54 -588.31 547.41 -587.21 544.13 C-587.06 542.57 -586.94 541 -586.84 539.44 C-586.42 534.41 -585.64 529.52 -584.71 524.56 C-584.58 523.86 -584.45 523.16 -584.32 522.43 C-583.34 517.39 -583.34 517.39 -582.21 515.13 C-582.11 513.89 -582.01 512.65 -581.9 511.38 C-581.35 505.97 -579.8 500.97 -578.24 495.78 C-577.29 492.38 -576.53 489.02 -575.84 485.56 C-571.52 464.66 -565.2 442.37 -556.76 422.74 C-554.71 417.94 -553.05 413.03 -551.38 408.09 C-551.12 407.37 -550.87 406.64 -550.62 405.89 C-550.39 405.24 -550.17 404.59 -549.94 403.92 C-549.21 402.13 -549.21 402.13 -547.21 399.13 C-546.72 397.74 -546.26 396.35 -545.84 394.94 C-544.63 391.18 -543.12 387.81 -541.29 384.31 C-540.08 381.86 -539.05 379.36 -538.03 376.81 C-535.75 371.28 -533.27 365.85 -530.71 360.44 C-530.35 359.66 -529.98 358.87 -529.6 358.07 C-527.36 353.36 -524.96 348.79 -522.4 344.25 C-521.32 342.33 -520.28 340.38 -519.26 338.42 C-515.46 331.16 -511.45 324.13 -507.08 317.19 C-505.33 314.32 -503.72 311.41 -502.15 308.44 C-499.65 303.76 -496.77 299.49 -493.63 295.22 C-492.05 293.09 -492.05 293.09 -491.21 290.13 C-490.55 290.13 -489.89 290.13 -489.21 290.13 C-488.8 289.02 -488.8 289.02 -488.38 287.89 C-487.29 285.32 -486.1 283.24 -484.53 280.94 C-484 280.16 -483.47 279.39 -482.92 278.59 C-482.36 277.78 -481.79 276.97 -481.21 276.13 C-480.63 275.28 -480.05 274.44 -479.45 273.57 C-475.31 267.6 -471 261.79 -466.51 256.08 C-463.47 252.17 -460.63 248.14 -457.81 244.08 C-457.02 243.11 -457.02 243.11 -456.21 242.13 C-455.55 242.13 -454.89 242.13 -454.21 242.13 C-453.84 241.32 -453.84 241.32 -453.46 240.5 C-451.91 237.54 -450.18 234.83 -448.21 232.13 C-447.55 232.13 -446.89 232.13 -446.21 232.13 C-445.94 231.54 -445.67 230.95 -445.39 230.34 C-444.24 228.18 -443.03 226.57 -441.43 224.74 C-440.9 224.13 -440.37 223.52 -439.82 222.9 C-439.27 222.27 -438.72 221.65 -438.15 221 C-437.05 219.75 -435.96 218.5 -434.87 217.24 C-434.14 216.42 -434.14 216.42 -433.4 215.58 C-432.12 214.12 -432.12 214.12 -431.21 212.13 C-430.55 212.13 -429.89 212.13 -429.21 212.13 C-428.88 211.14 -428.55 210.15 -428.21 209.13 C-427.55 209.13 -426.89 209.13 -426.21 209.13 C-426.21 208.47 -426.21 207.81 -426.21 207.13 C-425.55 207.13 -424.89 207.13 -424.21 207.13 C-423.98 206.56 -423.75 206 -423.51 205.42 C-421.89 202.56 -419.89 200.65 -417.53 198.38 C-413.67 194.62 -410.09 190.78 -406.69 186.62 C-405.21 185.13 -405.21 185.13 -402.21 184.13 C-402.21 183.47 -402.21 182.81 -402.21 182.13 C-400.67 180.61 -400.67 180.61 -398.59 178.88 C-395.87 176.58 -393.3 174.26 -390.84 171.69 C-388.21 169.13 -388.21 169.13 -386.21 169.13 C-386.21 168.47 -386.21 167.81 -386.21 167.13 C-385.55 167.13 -384.89 167.13 -384.21 167.13 C-383.88 166.14 -383.55 165.15 -383.21 164.13 C-382.55 164.13 -381.89 164.13 -381.21 164.13 C-381.21 163.47 -381.21 162.81 -381.21 162.13 C-379.1 160.18 -379.1 160.18 -376.34 158 C-375.43 157.28 -374.53 156.55 -373.6 155.81 C-371.21 154.13 -371.21 154.13 -369.21 154.13 C-369.21 153.47 -369.21 152.81 -369.21 152.13 C-363.74 147.13 -363.74 147.13 -361.21 147.13 C-361.21 146.47 -361.21 145.81 -361.21 145.13 C-359.53 143.62 -359.53 143.62 -357.34 142 C-356.62 141.46 -355.9 140.92 -355.16 140.37 C-353.21 139.13 -353.21 139.13 -351.21 139.13 C-351.21 138.47 -351.21 137.81 -351.21 137.13 C-349.22 135.42 -349.22 135.42 -346.34 133.31 C-345.81 132.93 -345.28 132.54 -344.74 132.14 C-342.9 130.79 -341.06 129.46 -339.21 128.13 C-337.8 127.09 -336.38 126.06 -334.97 125.03 C-326.33 118.74 -317.61 112.59 -308.78 106.57 C-304.99 103.98 -301.25 101.34 -297.52 98.66 C-295.12 97.06 -292.65 95.63 -290.13 94.21 C-286.7 92.27 -283.3 90.26 -279.9 88.25 C-279.15 87.81 -278.39 87.37 -277.62 86.91 C-273.77 84.65 -269.95 82.35 -266.15 80 C-260.01 76.3 -253.55 73.22 -247.12 70.06 C-244.48 68.77 -241.85 67.45 -239.21 66.13 C-238.26 65.65 -237.32 65.18 -236.34 64.69 C-234 63.52 -231.67 62.34 -229.34 61.15 C-222.22 57.54 -215.11 54.14 -207.7 51.15 C-205.71 50.33 -203.76 49.4 -201.84 48.44 C-199.21 47.13 -199.21 47.13 -196.5 46.23 C-192.92 45.03 -189.45 43.63 -185.96 42.19 C-180.85 40.11 -175.77 38.32 -170.46 36.83 C-168.18 36.12 -166.12 35.21 -163.96 34.19 C-159 31.88 -153.84 30.51 -148.58 29.06 C-143.74 27.72 -138.98 26.14 -134.26 24.42 C-128.56 22.4 -122.74 21.02 -116.85 19.68 C-112.16 18.6 -107.53 17.41 -102.9 16.13 C-94.55 13.86 -86.09 12.23 -77.6 10.59 C-75.39 10.16 -73.19 9.71 -70.99 9.24 C-64.54 7.89 -58.26 6.85 -51.69 6.37 C-49.3 6.14 -47.1 5.7 -44.78 5.13 C-40.15 4 -35.55 3.67 -30.81 3.37 C-28.1 3.22 -28.1 3.22 -25.21 2.13 C-23.84 1.99 -22.46 1.9 -21.09 1.85 C-20.3 1.81 -19.51 1.77 -18.7 1.73 C-17.04 1.66 -15.38 1.59 -13.73 1.52 C-12.94 1.48 -12.15 1.45 -11.34 1.41 C-10.26 1.36 -10.26 1.36 -9.16 1.32 C-5.95 1 -3.28 0 0 0 Z M-18.21 45.13 C-18.94 45.22 -19.67 45.31 -20.42 45.4 C-82.8 53.15 -145.32 68.96 -202.21 96.13 C-203.66 96.8 -205.11 97.47 -206.56 98.15 C-220.61 104.69 -234.62 111.48 -247.8 119.67 C-250.27 121.16 -252.79 122.53 -255.34 123.89 C-260.92 126.92 -266.3 130.2 -271.65 133.63 C-272.59 134.23 -273.53 134.83 -274.5 135.45 C-288.88 144.71 -302.76 154.58 -316.21 165.13 C-317.82 166.34 -319.42 167.55 -321.02 168.77 C-331.37 176.62 -341.14 185.15 -350.74 193.9 C-352.12 195.14 -353.51 196.38 -354.92 197.59 C-359.95 201.93 -364.71 206.48 -369.4 211.19 C-370.15 211.93 -370.9 212.68 -371.67 213.45 C-373.25 215.02 -374.82 216.6 -376.39 218.17 C-378.77 220.56 -381.16 222.94 -383.55 225.32 C-385.08 226.86 -386.62 228.4 -388.15 229.94 C-389.21 230.99 -389.21 230.99 -390.29 232.06 C-394.8 236.59 -399.06 241.27 -403.21 246.13 C-404.22 247.29 -405.23 248.46 -406.24 249.62 C-407.21 250.75 -408.18 251.87 -409.15 253 C-409.86 253.82 -409.86 253.82 -410.59 254.66 C-414.93 259.71 -419.08 264.91 -423.21 270.13 C-423.81 270.88 -424.41 271.63 -425.03 272.41 C-484.66 347.89 -525.29 439.21 -551.21 616.13 C-550.18 617.39 -550.18 617.39 -547.9 617.25 C-546.35 617.25 -546.35 617.25 -544.76 617.25 C-543.57 617.25 -542.38 617.25 -541.16 617.26 C-539.82 617.25 -538.48 617.25 -537.15 617.25 C-535.74 617.25 -534.33 617.25 -532.92 617.25 C-529.04 617.25 -525.15 617.25 -521.27 617.24 C-517.08 617.24 -512.9 617.24 -508.72 617.24 C-501.46 617.24 -494.21 617.24 -486.96 617.23 C-476.47 617.22 -465.98 617.22 -455.49 617.22 C-438.48 617.22 -421.46 617.21 -404.45 617.2 C-387.91 617.19 -371.38 617.19 -354.85 617.18 C-353.83 617.18 -352.81 617.18 -351.76 617.18 C-346.65 617.18 -341.55 617.18 -336.44 617.18 C-294.03 617.17 -251.62 617.15 -209.21 617.13 C-208.02 614.74 -207.81 612.74 -207.45 610.09 C-203.31 580.47 -195.85 551.88 -182.21 525.13 C-181.92 524.54 -181.63 523.95 -181.33 523.34 C-170.96 502.47 -157 482.82 -140.9 465.99 C-139.05 464.01 -137.31 462.06 -135.6 459.97 C-133.66 457.66 -131.82 455.74 -129.53 453.81 C-127.34 451.96 -125.19 450.11 -123.11 448.14 C-100.33 426.7 -71.38 410.92 -42.21 400.13 C-41.56 399.88 -40.91 399.64 -40.24 399.39 C23.87 375.95 94.81 380.27 156.7 408.45 C169.09 414.31 180.6 421.22 191.79 429.13 C192.51 429.64 193.24 430.15 193.99 430.67 C203.58 437.49 212.36 444.92 220.79 453.13 C221.46 453.77 222.13 454.42 222.82 455.09 C232.29 464.21 241.11 473.44 248.79 484.13 C249.24 484.76 249.7 485.39 250.17 486.04 C277.49 524.28 295.14 566.88 300.33 613.85 C300.48 614.6 300.63 615.35 300.79 616.13 C303.43 617.45 305.39 617.25 308.34 617.25 C309.53 617.25 310.72 617.25 311.94 617.26 C313.26 617.25 314.58 617.25 315.94 617.25 C317.34 617.25 318.74 617.25 320.15 617.25 C324.02 617.25 327.89 617.25 331.76 617.24 C335.93 617.24 340.1 617.24 344.28 617.24 C351.51 617.24 358.74 617.24 365.97 617.23 C376.42 617.22 386.87 617.22 397.33 617.22 C414.28 617.22 431.24 617.21 448.2 617.2 C464.68 617.19 481.16 617.19 497.63 617.18 C499.16 617.18 499.16 617.18 500.71 617.18 C505.8 617.18 510.89 617.18 515.99 617.18 C558.25 617.17 600.52 617.15 642.79 617.13 C642.79 615.38 642.8 613.62 642.8 611.87 C642.8 610.9 642.8 609.92 642.81 608.91 C642.76 602.64 642.14 596.38 641.6 590.13 C641.5 588.99 641.5 588.99 641.4 587.84 C634.92 514.01 614.64 443.94 582.66 377.13 C582.37 376.51 582.07 375.88 581.76 375.24 C578.5 368.41 575.13 361.75 571.13 355.32 C569.67 352.94 568.35 350.52 567.04 348.06 C551.61 319.72 533.35 292.02 512.79 267.13 C511.77 265.86 511.77 265.86 510.72 264.58 C506.54 259.41 502.28 254.31 497.97 249.25 C497.54 248.74 497.1 248.22 496.65 247.69 C486.59 235.93 475.75 224.93 464.79 214 C462.52 211.74 460.26 209.47 457.99 207.19 C456.52 205.73 455.05 204.26 453.58 202.79 C452.92 202.12 452.25 201.46 451.57 200.77 C447.14 196.36 442.53 192.2 437.79 188.13 C436.7 187.18 435.62 186.23 434.54 185.28 C426.22 178.02 417.59 171.27 408.78 164.63 C406.96 163.26 405.17 161.87 403.38 160.47 C395.09 153.98 386.53 147.99 377.79 142.13 C376.95 141.56 376.12 141 375.26 140.42 C359.92 130.06 344.08 120.91 327.79 112.13 C326.11 111.21 324.44 110.3 322.77 109.38 C278.27 85.28 230 68.49 180.79 57.13 C179.18 56.75 179.18 56.75 177.53 56.37 C170.97 54.86 164.39 53.45 157.79 52.13 C156.49 51.86 156.49 51.86 155.16 51.6 C142.45 49.08 129.66 47.43 116.79 46 C116.06 45.92 115.34 45.84 114.59 45.76 C110.14 45.27 105.69 44.81 101.23 44.37 C99.56 44.2 97.88 44.03 96.21 43.86 C79.99 42.16 63.9 41.77 47.6 41.81 C46.33 41.82 45.06 41.82 43.75 41.82 C22.96 41.87 2.43 42.57 -18.21 45.13 Z M-550.21 661.13 C-551.37 665.18 -551.12 668.87 -550.79 673.03 C-550.74 673.81 -550.68 674.59 -550.62 675.4 C-550.43 677.95 -550.23 680.51 -550.03 683.06 C-549.96 683.94 -549.89 684.82 -549.82 685.72 C-548.56 701.62 -546.76 717.37 -544.21 733.13 C-544.02 734.29 -543.84 735.46 -543.64 736.66 C-536.26 781.55 -524.16 826.24 -506.21 868.13 C-505.85 868.99 -505.49 869.85 -505.11 870.74 C-500.19 882.44 -494.94 893.98 -489.46 905.44 C-488.93 906.55 -488.4 907.67 -487.85 908.82 C-485.05 914.61 -482.08 920.18 -478.7 925.66 C-477.13 928.26 -475.67 930.91 -474.22 933.58 C-466.44 947.98 -458.02 961.98 -448.51 975.31 C-447.22 977.12 -445.94 978.94 -444.66 980.76 C-431.14 999.95 -416.31 1018.26 -400.5 1035.61 C-399.11 1037.14 -397.73 1038.68 -396.36 1040.23 C-389.78 1047.7 -382.77 1054.72 -375.73 1061.74 C-373.65 1063.82 -371.57 1065.9 -369.5 1067.98 C-368.15 1069.33 -366.81 1070.67 -365.46 1072.01 C-364.85 1072.62 -364.24 1073.23 -363.61 1073.86 C-359.31 1078.15 -354.81 1082.16 -350.21 1086.13 C-349.02 1087.17 -347.83 1088.22 -346.64 1089.27 C-338.91 1096.05 -331.04 1102.57 -322.89 1108.84 C-321.27 1110.09 -319.65 1111.35 -318.04 1112.61 C-294.24 1131.18 -268.84 1147.44 -242.38 1161.93 C-239.6 1163.47 -236.84 1165.04 -234.08 1166.62 C-221.82 1173.6 -209.36 1179.82 -196.3 1185.16 C-191.79 1187.01 -187.36 1188.98 -182.95 1191.04 C-153.21 1204.85 -120.94 1214.41 -88.99 1221.5 C-86.29 1222.11 -83.61 1222.76 -80.92 1223.42 C-55.79 1229.54 -29.95 1232.87 -4.21 1235.13 C-3.03 1235.23 -1.85 1235.34 -0.63 1235.44 C81.8 1242.42 167.48 1231.99 331.48 1164.51 C333.84 1163.1 336.23 1161.79 338.66 1160.5 C352.18 1153.19 365.28 1145.06 377.96 1136.37 C379.84 1135.09 381.74 1133.82 383.63 1132.55 C393.33 1126.04 402.54 1118.99 411.71 1111.76 C414.17 1109.83 416.66 1107.93 419.16 1106.05 C424.52 1101.99 429.6 1097.74 434.54 1093.19 C436.49 1091.4 438.47 1089.66 440.47 1087.94 C451.62 1078.16 462.21 1067.83 472.71 1057.38 C474 1056.1 475.28 1054.83 476.57 1053.55 C483.39 1046.8 489.95 1040.05 495.89 1032.5 C497.88 1030.01 499.99 1027.66 502.16 1025.31 C507.16 1019.82 511.7 1014 516.23 1008.13 C517.89 1005.99 519.57 1003.87 521.25 1001.76 C528.12 993.06 534.6 984.25 540.61 974.93 C541.79 973.13 542.99 971.34 544.2 969.56 C549.03 962.46 553.61 955.24 558.04 947.88 C558.76 946.67 558.76 946.67 559.5 945.44 C562.56 940.31 565.46 935.12 568.3 929.86 C569.72 927.26 571.16 924.67 572.61 922.08 C579.54 909.67 585.7 897.03 591.47 884.04 C592.87 880.93 594.32 877.85 595.78 874.76 C598.85 868.12 601.53 861.36 604.1 854.5 C604.33 853.88 604.57 853.26 604.81 852.62 C626.85 793.98 646.07 725.47 642.79 662.13 C641.75 660.87 641.75 660.87 639.48 661 C638.45 661 637.42 661 636.35 661 C635.17 661 633.98 661 632.76 661 C631.43 661 630.09 661 628.76 661.01 C627.36 661.01 625.95 661.01 624.55 661 C620.67 661 616.8 661.01 612.93 661.01 C608.76 661.02 604.58 661.01 600.41 661.01 C593.18 661.01 585.95 661.02 578.71 661.02 C568.26 661.03 557.8 661.03 547.34 661.03 C530.38 661.04 513.41 661.04 496.45 661.05 C479.96 661.06 463.48 661.07 447 661.07 C445.98 661.07 444.97 661.07 443.92 661.07 C438.83 661.07 433.73 661.08 428.64 661.08 C386.36 661.09 344.07 661.1 301.79 661.13 C301.58 662.28 301.38 663.44 301.17 664.63 C300.9 666.16 300.63 667.7 300.36 669.24 C300.22 670 300.09 670.76 299.95 671.54 C290.64 724.33 271.63 773.11 234.22 812.51 C232.47 814.4 230.83 816.27 229.2 818.26 C227.27 820.56 225.45 822.46 223.16 824.38 C220.87 826.32 218.64 828.27 216.46 830.34 C208.81 837.59 200.47 843.62 191.86 849.67 C189.9 851.04 187.97 852.44 186.04 853.85 C181.49 857.04 176.69 859.53 171.79 862.13 C170.38 862.9 168.97 863.68 167.56 864.45 C143.39 877.62 117.82 886.15 90.79 891.13 C89.89 891.29 88.99 891.46 88.07 891.63 C60.59 896.48 30.21 896.13 2.79 891.13 C1.88 890.97 0.98 890.82 0.05 890.66 C-22.21 886.72 -45.17 879.68 -65.21 869.13 C-66.57 868.44 -67.92 867.76 -69.28 867.08 C-85.71 858.74 -100.71 848.46 -115.21 837.13 C-115.75 836.71 -116.29 836.29 -116.85 835.85 C-123.05 830.98 -128.75 825.81 -134.21 820.13 C-135.02 819.32 -135.82 818.52 -136.65 817.69 C-137.5 816.84 -138.34 816 -139.21 815.13 C-140.13 814.28 -140.13 814.28 -141.06 813.42 C-179.75 776.69 -204.28 717.75 -207.85 665.16 C-208.05 662.91 -208.05 662.91 -210.21 661.13 C-212.75 660.83 -212.75 660.83 -215.77 660.88 C-216.96 660.88 -218.15 660.87 -219.37 660.87 C-221.35 660.88 -221.35 660.88 -223.36 660.89 C-224.77 660.89 -226.17 660.88 -227.57 660.88 C-231.45 660.88 -235.32 660.88 -239.19 660.89 C-243.36 660.9 -247.53 660.9 -251.7 660.9 C-258.93 660.9 -266.16 660.9 -273.39 660.92 C-283.84 660.93 -294.3 660.94 -304.75 660.94 C-321.71 660.94 -338.67 660.96 -355.63 660.98 C-372.1 660.99 -388.58 661.01 -405.06 661.02 C-406.07 661.02 -407.09 661.02 -408.14 661.02 C-413.23 661.02 -418.32 661.02 -423.41 661.03 C-465.68 661.05 -507.95 661.08 -550.21 661.13 Z " fill="#000002" transform="translate(593.212890625,-0.126983642578125)"/>
<path d="M0 0 C1.11 0.75 2.22 1.51 3.34 2.26 C10.45 7.14 16.94 12.41 23.2 18.35 C25.77 20.78 28.4 23.11 31.06 25.44 C50.08 42.6 65.32 64.89 76.09 88.05 C76.98 89.95 77.89 91.83 78.8 93.71 C86.22 109.41 91.15 126.89 94 144 C94.31 145.77 94.31 145.77 94.62 147.58 C102.64 200.97 90.17 258.72 58.23 302.45 C56.84 304.31 55.43 306.16 54 308 C53.25 308.97 52.51 309.95 51.74 310.95 C43.19 321.75 33.67 332.27 23 341 C22.17 341.73 21.34 342.46 20.48 343.21 C-7.79 367.7 -43.22 383.68 -80 390 C-81.18 390.2 -82.37 390.41 -83.59 390.62 C-105.3 393.87 -130.4 394.05 -152 390 C-152.81 389.85 -153.63 389.7 -154.47 389.54 C-178.38 384.94 -201.07 377.23 -221.79 364.35 C-223.91 363.06 -226.06 361.9 -228.25 360.75 C-234.89 357.1 -240.93 352.51 -247 348 C-247.84 347.37 -248.69 346.75 -249.56 346.1 C-255.04 341.87 -260.12 337.21 -265.19 332.5 C-265.85 331.88 -266.52 331.27 -267.2 330.63 C-271.77 326.33 -275.94 321.78 -280 317 C-280.74 316.16 -281.47 315.31 -282.23 314.45 C-308.43 283.38 -324.21 244.22 -329 204 C-329.13 203.01 -329.26 202.03 -329.39 201.01 C-335.16 147.95 -318.96 91.83 -286 50 C-285.31 49.1 -284.62 48.21 -283.9 47.28 C-280.4 42.81 -276.8 38.65 -272.71 34.71 C-270.89 32.89 -269.23 30.97 -267.56 29 C-264.02 24.91 -260.14 21.47 -256 18 C-255.16 17.26 -254.32 16.52 -253.46 15.76 C-185.65 -42.88 -74.33 -52.81 0 0 Z " fill="#757879" transform="translate(756,460)"/>
<path d="M0 0 C34.63 -0.94 66.35 12.72 91.22 36.27 C113.47 57.92 129.15 89.26 130.07 120.53 C130.1 123.23 130.12 125.93 130.11 128.62 C130.11 129.68 130.11 129.68 130.11 130.76 C130.07 142.29 129.11 153.06 125.74 164.12 C125.53 164.83 125.33 165.54 125.12 166.26 C119.62 184.95 109.66 200.69 96.74 215.12 C96.27 215.65 95.81 216.17 95.33 216.71 C75.31 238.78 45.07 254.47 15.19 256.35 C11.37 256.46 7.56 256.51 3.74 256.5 C3.06 256.5 2.38 256.5 1.69 256.5 C-34.86 256.36 -67.11 240.69 -92.84 214.92 C-101.23 206.21 -107.99 196 -113.26 185.12 C-113.76 184.09 -114.26 183.06 -114.78 182 C-129.11 150.66 -129.43 115.71 -117.93 83.46 C-106.68 53.39 -82.7 26.55 -53.51 12.83 C-36.14 5.32 -18.9 1.04 0 0 Z " fill="#FAFDFF" transform="translate(637.26171875,510.875)"/>
<path d="M0 0 C0.74 -0.01 1.48 -0.01 2.24 -0.02 C32.76 -0.25 32.76 -0.25 45.98 3.2 C46.81 3.41 47.64 3.62 48.49 3.84 C94.35 15.6 131.58 42.63 156.08 83.33 C171.87 110.33 180.46 139.48 180.29 170.89 C180.29 171.94 180.29 171.94 180.28 173.01 C180.23 184.3 179.52 195.17 176.98 206.2 C176.8 206.97 176.63 207.74 176.46 208.54 C172.32 226.72 165.73 243.32 155.98 259.2 C155.04 260.74 155.04 260.74 154.08 262.3 C130.08 299.8 92.61 327.42 48.98 337.2 C36.2 339.94 23.79 341.44 10.73 341.45 C10.01 341.45 9.29 341.45 8.56 341.46 C-2.88 341.44 -13.85 340.76 -25.02 338.2 C-25.79 338.04 -26.55 337.87 -27.34 337.7 C-58.61 330.77 -86.39 314.52 -110.02 293.2 C-110.87 292.44 -111.72 291.68 -112.59 290.89 C-138.51 266.26 -154.39 232.21 -160.02 197.2 C-160.23 195.93 -160.43 194.66 -160.64 193.35 C-164.29 168.86 -161.5 143.74 -154.02 120.2 C-153.78 119.44 -153.54 118.67 -153.29 117.88 C-147.24 99.23 -138.26 81.56 -126.02 66.2 C-125.59 65.65 -125.15 65.1 -124.7 64.53 C-96.08 28.95 -55.6 6 -10.18 0.42 C-6.79 0.08 -3.4 0.02 0 0 Z M-44.02 54.2 C-44.73 54.53 -45.44 54.86 -46.18 55.2 C-48.16 56.15 -50.09 57.15 -52.02 58.2 C-52.76 58.6 -53.49 58.99 -54.24 59.4 C-72.72 69.9 -87.14 84.79 -99.02 102.2 C-99.6 103.02 -100.17 103.84 -100.76 104.68 C-117.96 130.97 -122.65 166.4 -116.47 196.75 C-114.26 206.68 -111.26 215.95 -107.02 225.2 C-106.64 226.09 -106.25 226.97 -105.85 227.88 C-100.07 240.31 -91.43 250.43 -82.02 260.2 C-81.45 260.84 -80.88 261.47 -80.3 262.12 C-61.03 282.92 -29.41 296.81 -1.41 298.41 C2.47 298.51 6.34 298.53 10.23 298.52 C11.25 298.51 11.25 298.51 12.3 298.51 C46.89 298.31 76.59 284.35 100.98 260.2 C107.36 253.66 113.04 246.9 117.98 239.2 C118.55 238.33 119.12 237.45 119.71 236.54 C126.96 224.87 131.91 211.57 134.98 198.2 C135.15 197.43 135.33 196.65 135.52 195.85 C137.16 187.81 137.38 179.88 137.35 171.7 C137.35 171 137.35 170.29 137.35 169.57 C137.31 158.05 136.38 147.25 132.98 136.2 C132.76 135.47 132.54 134.74 132.31 133.98 C129.28 124.11 125.27 115.1 119.98 106.2 C119.18 104.82 119.18 104.82 118.36 103.41 C101.1 74.81 74.06 54.85 41.98 46.2 C33.11 44.05 24.09 42.66 14.98 42.2 C14.23 42.16 13.48 42.12 12.71 42.08 C-6.67 41.55 -26.53 45.94 -44.02 54.2 Z " fill="#000002" transform="translate(630.0234375,468.796875)"/>
</svg>
